<svg xmlns="http://www.w3.org/2000/svg" xmlns:xlink="http://www.w3.org/1999/xlink" width="100%" height="100%" viewBox="0 0 747 328.5"><g id="graph0" class="graph" transform="scale(1 1) rotate(0) translate(4 324.5)"><title>time</title><polygon fill="#fff" stroke="transparent" points="-4 4 -4 -324.5 743 -324.5 743 4 -4 4"/><g id="node1" class="node"><title>L1</title><text x="49.5" y="-305.3" fill="#000" font-family="Times,serif" font-size="14" text-anchor="middle">http client</text></g><g id="node2" class="node"><title>s000</title><ellipse cx="49.5" cy="-262" fill="#000" stroke="#000" rx="0" ry="0"/></g><g id="edge1" class="edge"><title>L1-&gt;s000</title><path fill="none" stroke="#000" d="M49.5,-297.3418C49.5,-285.6836 49.5,-274.0254 49.5,-262.3672"/></g><g id="node3" class="node"><title>s001</title><ellipse cx="49.5" cy="-225" fill="#000" stroke="#000" rx="0" ry="0"/></g><g id="edge2" class="edge"><title>s000-&gt;s001</title><path fill="none" stroke="#000" d="M49.5,-261.7132C49.5,-249.5718 49.5,-237.4304 49.5,-225.2891"/></g><g id="node11" class="node"><title>s100</title><ellipse cx="309.5" cy="-262" fill="#000" stroke="#000" rx="0" ry="0"/></g><g id="edge25" class="edge"><title>s000-&gt;s100</title><path fill="none" stroke="#000" stroke-dasharray="5 2" d="M49.5474,-262C53.0659,-262 251.6051,-262 299.2866,-262"/><polygon fill="#000" stroke="#000" points="299.453 -265.5 309.453 -262 299.453 -258.5 299.453 -265.5"/><text x="170" y="-265.8" fill="#000" font-family="Times,serif" font-size="14" text-anchor="middle">request 1</text></g><g id="node4" class="node"><title>s002</title><ellipse cx="49.5" cy="-187" fill="#000" stroke="#000" rx="0" ry="0"/></g><g id="edge3" class="edge"><title>s001-&gt;s002</title><path fill="none" stroke="#000" d="M49.5,-224.7054C49.5,-212.2359 49.5,-199.7664 49.5,-187.2969"/></g><g id="node12" class="node"><title>s101</title><ellipse cx="309.5" cy="-225" fill="#000" stroke="#000" rx="0" ry="0"/></g><g id="edge26" class="edge"><title>s001-&gt;s101</title><path fill="none" stroke="#000" stroke-dasharray="5 2" d="M49.5474,-225C53.0659,-225 251.6051,-225 299.2866,-225"/><polygon fill="#000" stroke="#000" points="299.453 -228.5 309.453 -225 299.453 -221.5 299.453 -228.5"/><text x="170" y="-228.8" fill="#000" font-family="Times,serif" font-size="14" text-anchor="middle">request 2</text></g><g id="node5" class="node"><title>s003</title><ellipse cx="49.5" cy="-149" fill="#000" stroke="#000" rx="0" ry="0"/></g><g id="edge4" class="edge"><title>s002-&gt;s003</title><path fill="none" stroke="#000" d="M49.5,-186.7054C49.5,-174.2359 49.5,-161.7664 49.5,-149.2969"/></g><g id="node13" class="node"><title>s102</title><ellipse cx="309.5" cy="-186" fill="#000" stroke="#000" rx="0" ry="0"/></g><g id="edge27" class="edge"><title>s002-&gt;s102</title><path fill="none" stroke="#000" stroke-dasharray="5 2" d="M49.5474,-186.9998C53.0659,-186.9863 251.6051,-186.2227 299.2866,-186.0393"/><polygon fill="#000" stroke="#000" points="299.467 -189.539 309.453 -186 299.44 -182.539 299.467 -189.539"/><text x="170" y="-189.8" fill="#000" font-family="Times,serif" font-size="14" text-anchor="middle">request 3</text></g><g id="node6" class="node"><title>s004</title><ellipse cx="49.5" cy="-111" fill="#000" stroke="#000" rx="0" ry="0"/></g><g id="edge5" class="edge"><title>s003-&gt;s004</title><path fill="none" stroke="#000" d="M49.5,-148.7054C49.5,-136.2359 49.5,-123.7664 49.5,-111.2969"/></g><g id="node14" class="node"><title>s103</title><ellipse cx="309.5" cy="-149" fill="#000" stroke="#000" rx="0" ry="0"/></g><g id="edge28" class="edge"><title>s003-&gt;s103</title><path fill="none" stroke="#000" stroke-dasharray="5 2" d="M49.5474,-149C53.0659,-149 251.6051,-149 299.2866,-149"/><polygon fill="#000" stroke="#000" points="299.453 -152.5 309.453 -149 299.453 -145.5 299.453 -152.5"/><text x="170" y="-152.8" fill="#000" font-family="Times,serif" font-size="14" text-anchor="middle">request 4</text></g><g id="node7" class="node"><title>s005</title><ellipse cx="49.5" cy="-73" fill="#000" stroke="#000" rx="0" ry="0"/></g><g id="edge6" class="edge"><title>s004-&gt;s005</title><path fill="none" stroke="#000" d="M49.5,-110.7054C49.5,-98.2359 49.5,-85.7664 49.5,-73.2969"/></g><g id="node8" class="node"><title>s006</title><ellipse cx="49.5" cy="-36" fill="#000" stroke="#000" rx="0" ry="0"/></g><g id="edge7" class="edge"><title>s005-&gt;s006</title><path fill="none" stroke="#000" d="M49.5,-72.7132C49.5,-60.5718 49.5,-48.4304 49.5,-36.2891"/></g><g id="node16" class="node"><title>s105</title><ellipse cx="309.5" cy="-74" fill="#000" stroke="#000" rx="0" ry="0"/></g><g id="edge29" class="edge"><title>s005-&gt;s105</title><path fill="none" stroke="#000" stroke-dasharray="5 2" d="M49.5474,-73.0002C53.0659,-73.0137 251.6051,-73.7773 299.2866,-73.9607"/><polygon fill="#000" stroke="#000" points="299.44 -77.461 309.453 -74 299.467 -70.461 299.44 -77.461"/><text x="170" y="-77.8" fill="#000" font-family="Times,serif" font-size="14" text-anchor="middle">request 5</text></g><g id="node9" class="node"><title>s007</title><ellipse cx="49.5" cy="0" fill="#000" stroke="#000" rx="0" ry="0"/></g><g id="edge8" class="edge"><title>s006-&gt;s007</title><path fill="none" stroke="#000" d="M49.5,-35.7209C49.5,-23.9077 49.5,-12.0945 49.5,-.2813"/></g><g id="node17" class="node"><title>s106</title><ellipse cx="309.5" cy="-38" fill="#000" stroke="#000" rx="0" ry="0"/></g><g id="edge30" class="edge"><title>s006-&gt;s106</title><path fill="none" stroke="#000" stroke-dasharray="5 2" d="M49.5474,-36.0004C53.0659,-36.0274 251.6051,-37.5547 299.2866,-37.9214"/><polygon fill="#000" stroke="#000" points="299.427 -41.422 309.453 -38 299.481 -34.423 299.427 -41.422"/><text x="170" y="-41.8" fill="#000" font-family="Times,serif" font-size="14" text-anchor="middle">request 6</text></g><g id="node10" class="node"><title>L2</title><text x="309.5" y="-305.3" fill="#000" font-family="Times,serif" font-size="14" text-anchor="middle">batching service</text></g><g id="edge9" class="edge"><title>L2-&gt;s100</title><path fill="none" stroke="#000" d="M309.5,-297.3418C309.5,-285.6836 309.5,-274.0254 309.5,-262.3672"/></g><g id="edge10" class="edge"><title>s100-&gt;s101</title><path fill="none" stroke="#000" d="M309.5,-261.7132C309.5,-249.5718 309.5,-237.4304 309.5,-225.2891"/></g><g id="edge11" class="edge"><title>s101-&gt;s102</title><path fill="none" stroke="#000" d="M309.5,-224.6977C309.5,-211.9 309.5,-199.1024 309.5,-186.3047"/></g><g id="edge12" class="edge"><title>s102-&gt;s103</title><path fill="none" stroke="#000" d="M309.5,-185.7132C309.5,-173.5718 309.5,-161.4304 309.5,-149.2891"/></g><g id="node22" class="node"><title>s202</title><ellipse cx="659.5" cy="-185" fill="#000" stroke="#000" rx="0" ry="0"/></g><g id="edge31" class="edge"><title>s102-&gt;s202</title><path fill="none" stroke="#000" stroke-dasharray="5 2" d="M309.5638,-185.9998C314.3941,-185.986 592.2641,-185.1921 649.3254,-185.0291"/><polygon fill="#000" stroke="#000" points="649.447 -188.529 659.437 -185 649.427 -181.529 649.447 -188.529"/><text x="479" y="-188.8" fill="#000" font-family="Times,serif" font-size="14" text-anchor="middle">merged_request{1,2,3}</text></g><g id="node15" class="node"><title>s104</title><ellipse cx="309.5" cy="-111" fill="#000" stroke="#000" rx="0" ry="0"/></g><g id="edge13" class="edge"><title>s103-&gt;s104</title><path fill="none" stroke="#000" d="M309.5,-148.7054C309.5,-136.2359 309.5,-123.7664 309.5,-111.2969"/></g><g id="edge34" class="edge"><title>s104-&gt;s004</title><path fill="none" stroke="#000" stroke-dasharray="5 2" d="M309.4534,-115C305.9621,-115 107.426,-115 59.7234,-115"/><path fill="none" stroke="#fff" stroke-dasharray="5 2" d="M309.4534,-113C305.9621,-113 107.426,-113 59.7234,-113"/><path fill="none" stroke="#000" stroke-dasharray="5 2" d="M309.4534,-111C305.9621,-111 107.426,-111 59.7234,-111"/><path fill="none" stroke="#fff" stroke-dasharray="5 2" d="M309.4534,-109C305.9621,-109 107.426,-109 59.7234,-109"/><path fill="none" stroke="#000" stroke-dasharray="5 2" d="M309.4534,-107C305.9621,-107 107.426,-107 59.7234,-107"/><polygon fill="#000" stroke="#000" points="59.547 -107.5 49.547 -111 59.547 -114.5 59.547 -107.5"/><text x="170" y="-114.8" fill="#000" font-family="Times,serif" font-size="14" text-anchor="middle">response 1,2,3</text></g><g id="edge14" class="edge"><title>s104-&gt;s105</title><path fill="none" stroke="#000" d="M309.5,-110.7132C309.5,-98.5718 309.5,-86.4304 309.5,-74.2891"/></g><g id="edge15" class="edge"><title>s105-&gt;s106</title><path fill="none" stroke="#000" d="M309.5,-73.7209C309.5,-61.9077 309.5,-50.0945 309.5,-38.2813"/></g><g id="node18" class="node"><title>s107</title><ellipse cx="309.5" cy="-2" fill="#000" stroke="#000" rx="0" ry="0"/></g><g id="edge16" class="edge"><title>s106-&gt;s107</title><path fill="none" stroke="#000" d="M309.5,-37.7209C309.5,-25.9077 309.5,-14.0945 309.5,-2.2813"/></g><g id="node26" class="node"><title>s206</title><ellipse cx="659.5" cy="-39" fill="#000" stroke="#000" rx="0" ry="0"/></g><g id="edge33" class="edge"><title>s106-&gt;s206</title><path fill="none" stroke="#000" stroke-dasharray="5 2" d="M309.5638,-38.0002C314.3941,-38.014 592.2641,-38.8079 649.3254,-38.9709"/><polygon fill="#000" stroke="#000" points="649.427 -42.471 659.437 -39 649.447 -35.471 649.427 -42.471"/><text x="479" y="-42.8" fill="#000" font-family="Times,serif" font-size="14" text-anchor="middle">merged_request{4,5,6}</text></g><g id="node19" class="node"><title>L3</title><text x="659.5" y="-300.3" fill="#000" font-family="Times,serif" font-size="14" text-anchor="middle">bento model service</text></g><g id="node20" class="node"><title>s200</title><ellipse cx="659.5" cy="-257" fill="#000" stroke="#000" rx="0" ry="0"/></g><g id="edge17" class="edge"><title>L3-&gt;s200</title><path fill="none" stroke="#000" d="M659.5,-292.3418C659.5,-280.6836 659.5,-269.0254 659.5,-257.3672"/></g><g id="node21" class="node"><title>s201</title><ellipse cx="659.5" cy="-221" fill="#000" stroke="#000" rx="0" ry="0"/></g><g id="edge18" class="edge"><title>s200-&gt;s201</title><path fill="none" stroke="#000" d="M659.5,-256.7209C659.5,-244.9077 659.5,-233.0945 659.5,-221.2813"/></g><g id="edge19" class="edge"><title>s201-&gt;s202</title><path fill="none" stroke="#000" d="M659.5,-220.7209C659.5,-208.9077 659.5,-197.0945 659.5,-185.2813"/></g><g id="node23" class="node"><title>s203</title><ellipse cx="659.5" cy="-148" fill="#000" stroke="#000" rx="0" ry="0"/></g><g id="edge20" class="edge"><title>s202-&gt;s203</title><path fill="none" stroke="#000" d="M659.5,-184.7132C659.5,-172.5718 659.5,-160.4304 659.5,-148.2891"/></g><g id="node24" class="node"><title>s204</title><ellipse cx="659.5" cy="-111" fill="#000" stroke="#000" rx="0" ry="0"/></g><g id="edge21" class="edge"><title>s203-&gt;s204</title><path fill="none" stroke="#000" d="M659.5,-147.7132C659.5,-135.5718 659.5,-123.4304 659.5,-111.2891"/></g><g id="edge32" class="edge"><title>s204-&gt;s104</title><path fill="none" stroke="#000" stroke-dasharray="5 2" d="M659.4372,-111C654.6443,-111 376.7779,-111 319.6864,-111"/><polygon fill="#000" stroke="#000" points="319.564 -107.5 309.564 -111 319.564 -114.5 319.564 -107.5"/><text x="479" y="-114.8" fill="#000" font-family="Times,serif" font-size="14" text-anchor="middle">merged_response{1,2,3}</text></g><g id="node25" class="node"><title>s205</title><ellipse cx="659.5" cy="-75" fill="#000" stroke="#000" rx="0" ry="0"/></g><g id="edge22" class="edge"><title>s204-&gt;s205</title><path fill="none" stroke="#000" d="M659.5,-110.7209C659.5,-98.9077 659.5,-87.0945 659.5,-75.2813"/></g><g id="edge23" class="edge"><title>s205-&gt;s206</title><path fill="none" stroke="#000" d="M659.5,-74.7209C659.5,-62.9077 659.5,-51.0945 659.5,-39.2813"/></g><g id="node27" class="node"><title>s207</title><ellipse cx="659.5" cy="-3" fill="#000" stroke="#000" rx="0" ry="0"/></g><g id="edge24" class="edge"><title>s206-&gt;s207</title><path fill="none" stroke="#000" d="M659.5,-38.7209C659.5,-26.9077 659.5,-15.0945 659.5,-3.2813"/></g></g></svg>