<svg xmlns="http://www.w3.org/2000/svg" xmlns:xlink="http://www.w3.org/1999/xlink" width="100%" height="100%" viewBox="0 0 842.69 326"><g id="graph0" class="graph" transform="scale(1 1) rotate(0) translate(4 322)"><title>%3</title><polygon fill="#fff" stroke="transparent" points="-4 4 -4 -322 838.695 -322 838.695 4 -4 4"/><g id="clust1" class="cluster"><title>cluster_u</title><polygon fill="none" stroke="#000" stroke-dasharray="1 5" points="0 -32 0 -269 107 -269 107 -32 0 -32"/><text x="53.5" y="-253.8" fill="#000" font-family="Times,serif" font-size="14" text-anchor="middle">user clients</text></g><g id="clust2" class="cluster"><title>cluster_m</title><polygon fill="none" stroke="#000" points="180 -20 180 -288 453.095 -288 453.095 -20 180 -20"/><text x="316.547" y="-272.8" fill="#000" font-family="Times,serif" font-size="14" text-anchor="middle">bento</text><text x="316.547" y="-257.8" fill="#000" font-family="Times,serif" font-size="14" text-anchor="middle">batching service</text></g><g id="clust3" class="cluster"><title>cluster_b</title><polygon fill="none" stroke="#000" points="514.695 -208 514.695 -310 826.695 -310 826.695 -208 514.695 -208"/><text x="670.695" y="-294.8" fill="#000" font-family="Times,serif" font-size="14" text-anchor="middle">bento</text><text x="670.695" y="-279.8" fill="#000" font-family="Times,serif" font-size="14" text-anchor="middle">model service</text></g><g id="clust4" class="cluster"><title>cluster_b2</title><polygon fill="none" stroke="#000" points="514.695 -108 514.695 -200 826.695 -200 826.695 -108 514.695 -108"/><text x="670.695" y="-184.8" fill="#000" font-family="Times,serif" font-size="14" text-anchor="middle">bento</text><text x="670.695" y="-169.8" fill="#000" font-family="Times,serif" font-size="14" text-anchor="middle">model service</text></g><g id="clust5" class="cluster"><title>cluster_b3</title><polygon fill="none" stroke="#000" points="514.695 -8 514.695 -100 826.695 -100 826.695 -8 514.695 -8"/><text x="670.695" y="-84.8" fill="#000" font-family="Times,serif" font-size="14" text-anchor="middle">bento</text><text x="670.695" y="-69.8" fill="#000" font-family="Times,serif" font-size="14" text-anchor="middle">model service</text></g><g id="node1" class="node"><title>user1</title><polygon fill="none" stroke="#000" points="80 -238 26 -238 26 -202 80 -202 80 -238"/><text x="53" y="-216.3" fill="#000" font-family="Times,serif" font-size="14" text-anchor="middle">user1</text></g><g id="node5" class="node"><title>marshal_inbound</title><polygon fill="none" stroke="#000" points="257 -242 188 -242 188 -28 257 -28 257 -242"/><text x="222.5" y="-130.8" fill="#000" font-family="Times,serif" font-size="14" text-anchor="middle">marshal</text><text x="222.5" y="-115.8" fill="#000" font-family="Times,serif" font-size="14" text-anchor="middle">inbound</text></g><g id="edge4" class="edge"><title>user1-&gt;marshal_inbound</title><path fill="none" stroke="#000" d="M80.2331,-220C80.2331,-220 177.7004,-220 177.7004,-220"/><polygon fill="#000" stroke="#000" points="177.701 -223.5 187.7 -220 177.7 -216.5 177.701 -223.5"/><text x="143.5" y="-223.8" fill="#000" font-family="Times,serif" font-size="14" text-anchor="middle">http</text><text x="143.5" y="-208.8" fill="#000" font-family="Times,serif" font-size="14" text-anchor="middle">request</text></g><g id="node2" class="node"><title>user2</title><polygon fill="none" stroke="#000" points="80 -184 26 -184 26 -148 80 -148 80 -184"/><text x="53" y="-162.3" fill="#000" font-family="Times,serif" font-size="14" text-anchor="middle">user2</text></g><g id="edge5" class="edge"><title>user2-&gt;marshal_inbound</title><path fill="none" stroke="#000" d="M80.2331,-166C80.2331,-166 177.7004,-166 177.7004,-166"/><polygon fill="#000" stroke="#000" points="177.701 -169.5 187.7 -166 177.7 -162.5 177.701 -169.5"/></g><g id="node3" class="node"><title>user3</title><polygon fill="none" stroke="#000" points="80 -130 26 -130 26 -94 80 -94 80 -130"/><text x="53" y="-108.3" fill="#000" font-family="Times,serif" font-size="14" text-anchor="middle">user3</text></g><g id="edge6" class="edge"><title>user3-&gt;marshal_inbound</title><path fill="none" stroke="#000" d="M80.2331,-112C80.2331,-112 177.7004,-112 177.7004,-112"/><polygon fill="#000" stroke="#000" points="177.701 -115.5 187.7 -112 177.7 -108.5 177.701 -115.5"/></g><g id="node4" class="node"><title>user4</title><polygon fill="none" stroke="#000" points="80 -76 26 -76 26 -40 80 -40 80 -76"/><text x="53" y="-54.3" fill="#000" font-family="Times,serif" font-size="14" text-anchor="middle">user4</text></g><g id="edge7" class="edge"><title>user4-&gt;marshal_inbound</title><path fill="none" stroke="#000" d="M80.2331,-58C80.2331,-58 177.7004,-58 177.7004,-58"/><polygon fill="#000" stroke="#000" points="177.701 -61.5 187.7 -58 177.7 -54.5 177.701 -61.5"/></g><g id="node6" class="node"><title>cork</title><ellipse cx="414.547" cy="-135" fill="none" stroke="#000" rx="30.595" ry="30.595"/><text x="414.547" y="-131.3" fill="#000" font-family="Times,serif" font-size="14" text-anchor="middle">cork</text></g><g id="edge8" class="edge"><title>marshal_inbound-&gt;cork</title><path fill="none" stroke="#000" d="M257.2783,-135C257.2783,-131 373.8297,-131 373.8297,-135"/><path fill="none" stroke="#fff" d="M257.2783,-135C257.2783,-133 373.8297,-133 373.8297,-135"/><path fill="none" stroke="#000" d="M257.2783,-135C257.2783,-135 373.8297,-135 373.8297,-135"/><path fill="none" stroke="#fff" d="M257.2783,-135C257.2783,-137 373.8297,-137 373.8297,-135"/><path fill="none" stroke="#000" d="M257.2783,-135C257.2783,-139 373.8297,-139 373.8297,-135"/><polygon fill="#000" stroke="#000" points="373.83 -138.5 383.83 -135 373.83 -131.5 373.83 -138.5"/><text x="320.5" y="-153.8" fill="#000" font-family="Times,serif" font-size="14" text-anchor="middle">packed</text><text x="320.5" y="-138.8" fill="#000" font-family="Times,serif" font-size="14" text-anchor="middle">request</text></g><g id="node13" class="node"><title>lb</title><ellipse cx="483.895" cy="-135" fill="#000" stroke="#000" rx="1.8" ry="1.8"/></g><g id="edge9" class="edge"><title>cork-&gt;lb</title><path fill="none" stroke="#000" d="M445.1659,-135C445.1659,-135 471.9124,-135 471.9124,-135"/><polygon fill="#000" stroke="#000" points="471.913 -138.5 481.912 -135 471.912 -131.5 471.913 -138.5"/></g><g id="node7" class="node"><title>extract</title><polygon fill="none" stroke="#000" points="591.695 -254 522.695 -254 522.695 -216 591.695 -216 591.695 -254"/><text x="557.195" y="-238.8" fill="#000" font-family="Times,serif" font-size="14" text-anchor="middle">input</text><text x="557.195" y="-223.8" fill="#000" font-family="Times,serif" font-size="14" text-anchor="middle">adapter</text></g><g id="node8" class="node"><title>user_customized_handler</title><polygon fill="none" stroke="#000" points="818.695 -254 711.695 -254 711.695 -216 818.695 -216 818.695 -254"/><text x="765.195" y="-238.8" fill="#000" font-family="Times,serif" font-size="14" text-anchor="middle">user defined</text><text x="765.195" y="-223.8" fill="#000" font-family="Times,serif" font-size="14" text-anchor="middle">handler</text></g><g id="edge1" class="edge"><title>extract-&gt;user_customized_handler</title><path fill="none" stroke="#000" d="M592.0091,-235C592.0091,-231 701.4921,-231 701.4921,-235"/><path fill="none" stroke="#fff" d="M592.0091,-235C592.0091,-233 701.4921,-233 701.4921,-235"/><path fill="none" stroke="#000" d="M592.0091,-235C592.0091,-235 701.4921,-235 701.4921,-235"/><path fill="none" stroke="#fff" d="M592.0091,-235C592.0091,-237 701.4921,-237 701.4921,-235"/><path fill="none" stroke="#000" d="M592.0091,-235C592.0091,-239 701.4921,-239 701.4921,-235"/><polygon fill="#000" stroke="#000" points="701.492 -238.5 711.492 -235 701.492 -231.5 701.492 -238.5"/><text x="651.695" y="-252.8" fill="#000" font-family="Times,serif" font-size="14" text-anchor="middle">merged</text><text x="651.695" y="-237.8" fill="#000" font-family="Times,serif" font-size="14" text-anchor="middle">data</text></g><g id="node9" class="node"><title>extract2</title><polygon fill="none" stroke="#000" points="591.695 -154 522.695 -154 522.695 -116 591.695 -116 591.695 -154"/><text x="557.195" y="-138.8" fill="#000" font-family="Times,serif" font-size="14" text-anchor="middle">input</text><text x="557.195" y="-123.8" fill="#000" font-family="Times,serif" font-size="14" text-anchor="middle">adapter</text></g><g id="node10" class="node"><title>user_customized_handler2</title><polygon fill="none" stroke="#000" points="818.695 -154 711.695 -154 711.695 -116 818.695 -116 818.695 -154"/><text x="765.195" y="-138.8" fill="#000" font-family="Times,serif" font-size="14" text-anchor="middle">user defined</text><text x="765.195" y="-123.8" fill="#000" font-family="Times,serif" font-size="14" text-anchor="middle">handler</text></g><g id="edge2" class="edge"><title>extract2-&gt;user_customized_handler2</title><path fill="none" stroke="#000" d="M592.0091,-135C592.0091,-131 701.4921,-131 701.4921,-135"/><path fill="none" stroke="#fff" d="M592.0091,-135C592.0091,-133 701.4921,-133 701.4921,-135"/><path fill="none" stroke="#000" d="M592.0091,-135C592.0091,-135 701.4921,-135 701.4921,-135"/><path fill="none" stroke="#fff" d="M592.0091,-135C592.0091,-137 701.4921,-137 701.4921,-135"/><path fill="none" stroke="#000" d="M592.0091,-135C592.0091,-139 701.4921,-139 701.4921,-135"/><polygon fill="#000" stroke="#000" points="701.492 -138.5 711.492 -135 701.492 -131.5 701.492 -138.5"/></g><g id="node11" class="node"><title>extract3</title><polygon fill="none" stroke="#000" points="591.695 -54 522.695 -54 522.695 -16 591.695 -16 591.695 -54"/><text x="557.195" y="-38.8" fill="#000" font-family="Times,serif" font-size="14" text-anchor="middle">input</text><text x="557.195" y="-23.8" fill="#000" font-family="Times,serif" font-size="14" text-anchor="middle">adapter</text></g><g id="node12" class="node"><title>user_customized_handler3</title><polygon fill="none" stroke="#000" points="818.695 -54 711.695 -54 711.695 -16 818.695 -16 818.695 -54"/><text x="765.195" y="-38.8" fill="#000" font-family="Times,serif" font-size="14" text-anchor="middle">user defined</text><text x="765.195" y="-23.8" fill="#000" font-family="Times,serif" font-size="14" text-anchor="middle">handler</text></g><g id="edge3" class="edge"><title>extract3-&gt;user_customized_handler3</title><path fill="none" stroke="#000" d="M592.0091,-35C592.0091,-31 701.4921,-31 701.4921,-35"/><path fill="none" stroke="#fff" d="M592.0091,-35C592.0091,-33 701.4921,-33 701.4921,-35"/><path fill="none" stroke="#000" d="M592.0091,-35C592.0091,-35 701.4921,-35 701.4921,-35"/><path fill="none" stroke="#fff" d="M592.0091,-35C592.0091,-37 701.4921,-37 701.4921,-35"/><path fill="none" stroke="#000" d="M592.0091,-35C592.0091,-39 701.4921,-39 701.4921,-35"/><polygon fill="#000" stroke="#000" points="701.492 -38.5 711.492 -35 701.492 -31.5 701.492 -38.5"/></g><g id="edge10" class="edge"><title>lb-&gt;extract</title><path fill="none" stroke="#000" d="M484.6946,-136.6315C484.6946,-149.1138 484.6946,-229 484.6946,-229 484.6946,-229 512.6432,-229 512.6432,-229"/><polygon fill="#000" stroke="#000" points="512.643 -232.5 522.643 -229 512.643 -225.5 512.643 -232.5"/></g><g id="edge11" class="edge"><title>lb-&gt;extract2</title><path fill="none" stroke="#000" d="M485.7065,-135C485.7065,-135 512.5837,-135 512.5837,-135"/><polygon fill="#000" stroke="#000" points="512.584 -138.5 522.584 -135 512.584 -131.5 512.584 -138.5"/></g><g id="edge12" class="edge"><title>lb-&gt;extract3</title><path fill="none" stroke="#000" d="M484.6946,-133.3685C484.6946,-120.8862 484.6946,-41 484.6946,-41 484.6946,-41 512.6432,-41 512.6432,-41"/><polygon fill="#000" stroke="#000" points="512.643 -44.5 522.643 -41 512.643 -37.5 512.643 -44.5"/></g></g></svg>